<?xml version="1.0" encoding="utf-8"?>
<!-- Generator: Adobe Illustrator 15.0.0, SVG Export Plug-In . SVG Version: 6.00 Build 0)  -->
<!DOCTYPE svg PUBLIC "-//W3C//DTD SVG 1.1//EN" "http://www.w3.org/Graphics/SVG/1.1/DTD/svg11.dtd">
<svg version="1.1" id="Capa_1" xmlns="http://www.w3.org/2000/svg" xmlns:xlink="http://www.w3.org/1999/xlink" x="0px" y="0px"
	 width="108px" height="111.25px" viewBox="0 0 108 111.25" enable-background="new 0 0 108 111.25" xml:space="preserve">
<line fill="none" stroke="#1E1E1E" stroke-width="1.8" stroke-linecap="round" stroke-miterlimit="10" x1="48.111" y1="19.623" x2="42.044" y2="8.259"/>
<line fill="none" stroke="#1E1E1E" stroke-width="1.8" stroke-linecap="round" stroke-miterlimit="10" x1="49.264" y1="19.366" x2="56.849" y2="1.679"/>
<circle fill="#1E1E1E" cx="48.583" cy="20.167" r="2.573"/>
<g>
	<path d="M2.137,110.014v-12.58h1.294l0.321,1.582C5,97.961,6.239,97.434,7.467,97.434c1.366,0,2.336,0.575,2.909,1.726
		c1.387-1.15,2.688-1.726,3.902-1.726c2.291,0,3.436,1.594,3.436,4.78v7.8H15.8v-7.919c0-1.877-0.683-2.816-2.05-2.816
		c-1.021,0-1.977,0.544-2.867,1.63v9.105H8.968v-7.884c0-1.9-0.676-2.852-2.029-2.852c-1.077,0-2.039,0.544-2.888,1.63v9.105H2.137z
		"/>
	<path d="M22.734,92.881v1.797H20.82v-1.797H22.734z M22.734,97.434v12.58H20.82v-12.58H22.734z"/>
	<path d="M25.84,110.014v-12.58h1.294l0.341,1.605c0.952-1.07,2.098-1.605,3.437-1.605v1.845c-1.297,0-2.35,0.532-3.157,1.594v9.142
		H25.84z"/>
	<path d="M32.309,106.096c0-2.58,1.47-3.869,4.409-3.869c1.083,0,2.029,0.079,2.836,0.239v-1.187c0-1.365-0.977-2.049-2.929-2.049
		c-1.118,0-2.264,0.2-3.437,0.6v-1.797c1.173-0.399,2.318-0.6,3.437-0.6c3.229,0,4.844,1.342,4.844,4.025v8.555h-0.973l-0.766-0.887
		c-0.945,0.592-2.056,0.887-3.333,0.887C33.672,110.014,32.309,108.708,32.309,106.096z M36.718,104.023
		c-1.663,0-2.494,0.679-2.494,2.036c0,1.438,0.724,2.157,2.173,2.157c1.325,0,2.377-0.328,3.157-0.982v-2.972
		C38.795,104.104,37.85,104.023,36.718,104.023z"/>
	<path fill="#525151" d="M44.575,95.397h1.201l0.414,2.036h2.525v1.797H46.49v7.225c0,1.175,0.438,1.762,1.315,1.762h0.911v1.797
		h-1.408c-1.822,0-2.732-1.13-2.732-3.391V95.397z"/>
	<path fill="#525151" d="M60.67,97.434v12.58h-1.314l-0.331-1.605c-1.318,1.07-2.643,1.605-3.975,1.605
		c-2.499,0-3.747-1.562-3.747-4.685v-7.896h1.915v7.932c0,1.869,0.801,2.804,2.402,2.804c1.097,0,2.143-0.531,3.136-1.594v-9.142
		H60.67z"/>
	<path d="M63.776,109.415v-1.917c1.208,0.479,2.463,0.719,3.768,0.719c1.732,0,2.598-0.6,2.598-1.798
		c0-1.118-0.569-1.677-1.708-1.677h-1.76c-2.277,0-3.416-1.238-3.416-3.714c0-2.396,1.508-3.595,4.523-3.595
		c1.297,0,2.549,0.2,3.757,0.6v1.917c-1.208-0.479-2.46-0.72-3.757-0.72c-1.808,0-2.712,0.6-2.712,1.798
		c0,1.118,0.535,1.677,1.604,1.677h1.76c2.415,0,3.623,1.238,3.623,3.714c0,2.396-1.505,3.595-4.513,3.595
		C66.239,110.014,64.983,109.814,63.776,109.415z"/>
	<path d="M83.359,104.358h-7.318c0,2.572,1.4,3.858,4.202,3.858c0.959,0,1.918-0.12,2.877-0.359v1.797
		c-0.959,0.239-2.125,0.359-3.499,0.359c-3.664,0-5.496-2.145-5.496-6.434c0-4.098,1.735-6.146,5.207-6.146
		C82.659,97.434,84.001,99.742,83.359,104.358z M76.042,102.514h5.568c0.097-2.204-0.766-3.307-2.587-3.307
		C77.159,99.207,76.166,100.31,76.042,102.514z"/>
	<path d="M86.361,110.014v-12.58h1.294l0.341,1.605c0.952-1.07,2.098-1.605,3.437-1.605v1.845c-1.297,0-2.35,0.532-3.157,1.594
		v9.142H86.361z"/>
	<path d="M95.263,92.881v1.797h-1.915v-1.797H95.263z M95.263,97.434v12.58h-1.915v-12.58H95.263z"/>
	<path d="M107.083,104.358h-7.318c0,2.572,1.4,3.858,4.202,3.858c0.959,0,1.918-0.12,2.877-0.359v1.797
		c-0.959,0.239-2.125,0.359-3.499,0.359c-3.664,0-5.496-2.145-5.496-6.434c0-4.098,1.735-6.146,5.207-6.146
		C106.383,97.434,107.725,99.742,107.083,104.358z M99.766,102.514h5.568c0.097-2.204-0.766-3.307-2.587-3.307
		C100.883,99.207,99.89,100.31,99.766,102.514z"/>
</g>
<path fill="#39393B" d="M88.688,87.168c-1.334-5.25-5.041-11.167-11.184-11.167H27.706c-6.177,0-11.184-5.076-11.184-11.339V31.673
	c0-6.263,5.007-11.339,11.184-11.339h49.798c6.178,0,11.184,5.076,11.184,11.339V87.168z"/>
<g>
	<defs>
		<path id="SVGID_1_" d="M82.48,60.421c0,4.83-3.922,8.746-8.762,8.746H31.491c-4.838,0-8.761-3.916-8.761-8.746V35.746
			c0-4.83,3.922-8.746,8.761-8.746h42.228c4.84,0,8.762,3.916,8.762,8.746V60.421z"/>
	</defs>
	<clipPath id="SVGID_2_">
		<use xlink:href="#SVGID_1_"  overflow="visible"/>
	</clipPath>
	<rect x="41.978" y="26.5" clip-path="url(#SVGID_2_)" fill="#EA5A9C" width="20.354" height="46.069"/>
	<rect x="22.025" y="26.818" clip-path="url(#SVGID_2_)" fill="#1DBAEE" width="20.406" height="46"/>
	<rect x="62.434" y="26.418" clip-path="url(#SVGID_2_)" fill="#FBEC56" width="20.387" height="46.4"/>
</g>
</svg>
