<svg xmlns="http://www.w3.org/2000/svg" xmlns:xlink="http://www.w3.org/1999/xlink" version="1.1" id="Ebene_1" x="0px" y="0px" width="100px" height="100px" viewBox="0 0 100 100" enable-background="new 0 0 100 100" xml:space="preserve">
<circle fill="#B2B2B2" cx="50" cy="50" r="50"/>
<g>
	<g id="Pixelbike_1_">
		<rect x="23.82" y="48.459" width="2.941" height="2.944"/>
		<path d="M23.82,54.346L23.82 51.403 20.875 51.403 20.875 54.346 20.875 57.289 20.875 60.231 23.82 60.231 23.82 57.289 z"/>
		<rect x="32.307" y="51.403" width="2.942" height="2.943"/>
		<rect x="29.363" y="54.346" width="2.944" height="2.943"/>
		<rect x="23.82" y="60.231" width="2.941" height="2.942"/>
		<path d="M32.453,63.174L29.706 63.174 29.607 63.174 26.761 63.174 26.761 66.117 29.607 66.117 29.706 66.117 32.453 66.117 32.551 66.117 35.396 66.117 35.396 63.174 32.551 63.174 z"/>
		<path d="M41.136,51.403L38.193 51.403 38.193 54.346 35.248 54.346 35.248 57.289 38.266 57.289 38.266 60.231 35.396 60.231 35.396 63.174 38.339 63.174 38.339 60.231 41.208 60.231 41.208 57.289 49.648 57.289 49.648 54.346 41.136 54.346 z"/>
		<path d="M29.706,48.459L32.453 48.459 32.551 48.459 35.248 48.459 35.248 51.403 38.193 51.403 38.193 48.459 41.085 48.459 41.085 45.514 38.143 45.514 38.143 48.459 35.396 48.459 35.396 45.514 32.551 45.514 32.453 45.514 29.706 45.514 29.607 45.514 26.761 45.514 26.761 48.459 29.607 48.459 z"/>
		<path d="M49.648,51.403L49.648 54.346 52.591 54.346 52.591 51.403 49.722 51.403 49.722 48.459 46.78 48.459 46.78 51.403 z"/>
		<rect x="64.144" y="51.403" width="2.942" height="2.943"/>
		<rect x="67.086" y="54.346" width="2.944" height="2.943"/>
		<rect x="61.199" y="59.971" width="2.945" height="2.943"/>
		<rect x="58.257" y="51.403" width="2.943" height="8.568"/>
		<path d="M75.775,51.403L75.775 48.459 72.877 48.459 72.877 45.514 69.931 45.514 66.989 45.514 64.045 45.514 64.045 48.459 61.199 48.459 61.199 51.403 64.144 51.403 64.144 48.459 66.989 48.459 69.931 48.459 72.827 48.459 72.827 51.403 75.528 51.403 75.528 59.971 72.636 59.971 72.636 62.914 64.169 62.914 64.169 65.858 72.755 65.858 72.755 62.914 75.578 62.914 75.578 59.971 78.471 59.971 78.471 51.403 z"/>
		<path d="M61.101,45.55L61.101 45.514 61.101 42.603 61.101 41.115 61.101 39.659 61.101 39.512 61.101 36.914 64.144 36.914 64.144 39.659 67.086 39.659 67.086 36.914 67.086 36.716 67.086 33.825 58.157 33.825 58.157 36.716 58.157 36.914 58.157 39.512 41.136 39.512 41.136 36.914 44.079 36.914 44.079 33.825 35.248 33.825 35.248 36.914 38.143 36.914 38.143 39.512 38.143 41.059 38.143 42.603 41.136 42.603 41.136 45.55 43.835 45.55 43.835 48.459 46.78 48.459 46.78 45.514 44.079 45.514 44.079 42.603 58.157 42.603 58.157 45.514 55.215 45.514 55.215 48.247 52.591 48.247 52.591 51.19 55.536 51.19 55.536 48.459 58.157 48.459 58.158 48.459 61.101 48.459 z"/>
	</g>
</g>
</svg>