<?xml version="1.0" encoding="utf-8"?>
<!-- Generator: Adobe Illustrator 16.0.0, SVG Export Plug-In . SVG Version: 6.00 Build 0)  -->
<!DOCTYPE svg PUBLIC "-//W3C//DTD SVG 1.1//EN" "http://www.w3.org/Graphics/SVG/1.1/DTD/svg11.dtd">
<svg version="1.1" id="Ebene_1" xmlns="http://www.w3.org/2000/svg" xmlns:xlink="http://www.w3.org/1999/xlink" x="0px" y="0px"
	 width="100px" height="100px" viewBox="0 0 100 100" enable-background="new 0 0 100 100" xml:space="preserve">
<rect x="8.269" y="47.337" fill="#020202" width="4.738" height="4.742"/>
<polygon fill="#020202" points="8.269,56.82 8.269,52.079 3.523,52.079 3.523,56.82 3.523,61.561 3.523,66.301 8.269,66.301 
	8.269,61.561 "/>
<rect x="21.939" y="52.079" fill="#020202" width="4.74" height="4.741"/>
<rect x="17.197" y="56.82" fill="#020202" width="4.742" height="4.74"/>
<rect x="8.269" y="66.301" fill="#020202" width="4.738" height="4.74"/>
<polygon fill="#020202" points="22.174,71.041 17.75,71.041 17.59,71.041 13.006,71.041 13.006,75.781 17.59,75.781 17.75,75.781 
	22.174,75.781 22.332,75.781 26.915,75.781 26.915,71.041 22.332,71.041 "/>
<polygon fill="#020202" points="36.162,52.079 31.42,52.079 31.42,56.82 26.678,56.82 26.678,61.561 31.538,61.561 31.538,66.301 
	26.915,66.301 26.915,71.041 31.656,71.041 31.656,66.301 36.277,66.301 36.277,61.561 49.873,61.561 49.873,56.82 36.162,56.82 "/>
<polygon fill="#020202" points="17.75,47.337 22.174,47.337 22.332,47.337 26.678,47.337 26.678,52.079 31.42,52.079 31.42,47.337 
	36.08,47.337 36.08,42.594 31.341,42.594 31.341,47.337 26.915,47.337 26.915,42.594 22.332,42.594 22.174,42.594 17.75,42.594 
	17.589,42.594 13.006,42.594 13.006,47.337 17.589,47.337 "/>
<polygon fill="#020202" points="49.873,52.079 49.873,56.82 54.612,56.82 54.612,52.079 49.993,52.079 49.993,47.337 45.253,47.337 
	45.253,52.079 "/>
<rect x="73.224" y="52.079" fill="#020202" width="4.739" height="4.741"/>
<rect x="77.963" y="56.82" fill="#020202" width="4.741" height="4.74"/>
<rect x="68.48" y="65.882" fill="#020202" width="4.743" height="4.74"/>
<rect x="63.739" y="52.079" fill="#020202" width="4.741" height="13.802"/>
<polygon fill="#020202" points="91.959,52.079 91.959,47.337 87.292,47.337 87.292,42.594 82.546,42.594 77.806,42.594 
	73.065,42.594 73.065,47.337 68.48,47.337 68.48,52.079 73.224,52.079 73.224,47.337 77.806,47.337 82.546,47.337 87.211,47.337 
	87.211,52.079 91.562,52.079 91.562,65.882 86.902,65.882 86.902,70.622 73.265,70.622 73.265,75.365 87.096,75.365 87.096,70.622 
	91.642,70.622 91.642,65.882 96.303,65.882 96.303,52.079 "/>
<polygon fill="#020202" points="68.322,42.651 68.322,42.594 68.322,37.904 68.322,35.506 68.322,33.161 68.322,32.924 
	68.322,28.74 73.225,28.74 73.225,33.161 77.962,33.161 77.962,28.74 77.962,28.42 77.962,23.764 63.58,23.764 63.58,28.42 
	63.58,28.74 63.58,32.924 36.163,32.924 36.163,28.74 40.903,28.74 40.903,23.764 26.677,23.764 26.677,28.74 31.341,28.74 
	31.341,32.924 31.341,35.417 31.341,37.904 36.163,37.904 36.163,42.651 40.51,42.651 40.51,47.337 45.253,47.337 45.253,42.594 
	40.903,42.594 40.903,37.904 63.58,37.904 63.58,42.594 58.842,42.594 58.842,46.995 54.612,46.995 54.612,51.735 59.358,51.735 
	59.358,47.337 63.58,47.337 63.581,47.337 68.322,47.337 "/>
<polygon fill="#020202" points="3.523,66.301 3.523,52.079 8.269,52.079 8.269,47.337 13.006,47.337 13.006,42.594 26.915,42.594 
	26.915,47.337 31.42,47.337 31.42,42.594 36.163,42.594 36.163,37.904 31.341,37.904 31.341,28.74 26.677,28.74 26.677,23.764 
	40.903,23.764 40.903,28.74 36.08,28.74 36.08,32.924 63.58,32.924 63.58,23.764 77.962,23.764 77.962,33.161 73.225,33.161 
	73.225,28.74 68.322,28.74 68.322,47.337 73.065,47.337 73.065,42.594 87.292,42.594 87.292,47.337 91.959,47.337 91.959,52.079 
	96.303,52.079 96.303,65.882 91.562,65.882 91.562,70.622 87.096,70.622 87.096,75.365 73.265,75.365 73.265,70.622 68.48,70.622 
	68.48,65.881 63.739,65.881 63.739,52.079 68.48,52.079 68.322,47.337 59.358,47.337 59.358,51.735 54.612,51.735 54.612,56.82 
	49.873,56.82 49.873,61.561 36.277,61.561 36.277,66.301 31.538,66.301 31.538,71.041 26.915,71.041 26.915,75.781 13.006,75.781 
	13.006,71.041 8.269,71.041 8.269,66.301 "/>
</svg>
