<svg xmlns="http://www.w3.org/2000/svg" xmlns:xlink="http://www.w3.org/1999/xlink" version="1.1" id="Ebene_1" x="0px" y="0px" width="100px" height="100px" viewBox="0 0 100 100" enable-background="new 0 0 100 100" xml:space="preserve">
<path d="M8.269,56.82L8.269 52.079 3.523 52.079 3.523 56.82 3.523 61.561 3.523 66.301 8.269 66.301 8.269 61.561 z"/>
<path d="M68.48,56.82L68.48 52.079 63.735 52.079 63.735 56.82 63.735 61.561 63.735 66.301 68.48 66.301 68.48 61.561 z"/>
<path d="M22.174,71.041L17.75 71.041 17.59 71.041 13.006 71.041 13.006 75.781 17.59 75.781 17.75 75.781 22.174 75.781 22.332 75.781 26.915 75.781 26.915 71.041 22.332 71.041 z"/>
<path d="M36.162,52.079L31.42 52.079 31.42 56.82 26.678 56.82 26.678 61.561 31.538 61.561 31.538 66.301 26.915 66.301 26.915 71.041 31.656 71.041 31.656 66.301 36.277 66.301 36.277 61.561 49.873 61.561 49.873 56.82 36.162 56.82 z"/>
<path d="M17.75,47.337L22.174 47.337 22.332 47.337 26.678 47.337 26.678 52.079 31.42 52.079 31.42 47.337 36.08 47.337 36.08 42.594 31.341 42.594 31.341 47.337 26.915 47.337 26.915 42.594 22.332 42.594 22.174 42.594 17.75 42.594 17.589 42.594 13.006 42.594 13.006 47.337 17.589 47.337 z"/>
<path d="M49.873,52.079L49.873 56.82 54.612 56.82 54.612 52.079 49.993 52.079 49.993 47.337 45.253 47.337 45.253 52.079 z"/>
<path d="M77.902,56.82L77.902 61.562 82.642 61.562 82.642 56.82 78.022 56.82 78.022 52.078 73.283 52.078 73.283 56.82 z"/>
<path d="M21.935,56.76L17.194 56.76 17.194 61.499 21.935 61.499 21.935 56.88 26.677 56.88 26.677 52.141 21.935 52.141 z"/>
<path d="M8.268,52.08L3.527 52.08 3.527 56.819 8.268 56.819 8.268 52.2 13.01 52.2 13.01 47.461 8.268 47.461 z"/>
<path d="M13.07,71.101L13.07 66.359 8.331 66.359 8.331 71.101 12.95 71.101 12.95 75.843 17.689 75.843 17.689 71.101 z"/>
<path d="M73.223,70.624L73.223 75.365 77.962 75.365 77.962 70.624 73.343 70.624 73.343 65.882 68.604 65.882 68.604 70.624 z"/>
<path d="M91.959,52.079L91.959 47.337 87.292 47.337 87.292 42.594 82.546 42.594 77.806 42.594 73.065 42.594 73.065 47.337 68.48 47.337 68.48 52.079 73.224 52.079 73.224 47.337 77.806 47.337 82.546 47.337 87.211 47.337 87.211 52.079 91.562 52.079 91.562 65.882 86.902 65.882 86.902 70.622 73.265 70.622 73.265 75.365 87.096 75.365 87.096 70.622 91.642 70.622 91.642 65.882 96.303 65.882 96.303 52.079 z"/>
<path d="M68.322,42.651L68.322 42.594 68.322 37.904 68.322 35.506 68.322 33.161 68.322 32.924 68.322 28.74 73.225 28.74 73.225 33.161 77.962 33.161 77.962 28.74 77.962 28.42 77.962 23.764 63.58 23.764 63.58 28.42 63.58 28.74 63.58 32.924 36.163 32.924 36.163 28.74 40.903 28.74 40.903 23.764 26.677 23.764 26.677 28.74 31.341 28.74 31.341 32.924 31.341 35.417 31.341 37.904 36.163 37.904 36.163 42.651 40.51 42.651 40.51 47.337 45.253 47.337 45.253 42.594 40.903 42.594 40.903 37.904 63.58 37.904 63.58 42.594 58.842 42.594 58.842 46.995 54.612 46.995 54.612 51.735 59.358 51.735 59.358 47.337 63.58 47.337 63.581 47.337 68.322 47.337 z"/>
</svg>