<svg xmlns="http://www.w3.org/2000/svg" xmlns:xlink="http://www.w3.org/1999/xlink" version="1.1" id="Ebene_1" x="0px" y="0px" width="100px" height="100px" viewBox="0 0 100 100" enable-background="new 0 0 100 100" xml:space="preserve">
<path d="M17.269,56.304L17.269 52.587 13.55 52.587 13.55 56.304 13.55 60.02 13.55 63.735 17.269 63.735 17.269 60.02 z"/>
<path d="M64.468,56.304L64.468 52.587 60.748 52.587 60.748 56.304 60.748 60.02 60.748 63.735 64.468 63.735 64.468 60.02 z"/>
<path d="M28.169,67.451L24.701 67.451 24.576 67.451 20.982 67.451 20.982 71.167 24.576 71.167 24.701 71.167 28.169 71.167 28.293 71.167 31.885 71.167 31.885 67.451 28.293 67.451 z"/>
<path d="M39.134,52.587L35.417 52.587 35.417 56.304 31.7 56.304 31.7 60.02 35.509 60.02 35.509 63.735 31.885 63.735 31.885 67.451 35.602 67.451 35.602 63.735 39.224 63.735 39.224 60.02 49.882 60.02 49.882 56.304 39.134 56.304 z"/>
<path d="M24.701,48.87L28.169 48.87 28.293 48.87 31.7 48.87 31.7 52.587 35.417 52.587 35.417 48.87 39.07 48.87 39.07 45.152 35.355 45.152 35.355 48.87 31.885 48.87 31.885 45.152 28.293 45.152 28.169 45.152 24.701 45.152 24.576 45.152 20.982 45.152 20.982 48.87 24.576 48.87 z"/>
<path d="M49.882,52.587L49.882 56.304 53.597 56.304 53.597 52.587 49.976 52.587 49.976 48.87 46.261 48.87 46.261 52.587 z"/>
<path d="M71.854,56.304L71.854 60.021 75.568 60.021 75.568 56.304 71.947 56.304 71.947 52.587 68.232 52.587 68.232 56.304 z"/>
<path d="M27.982,56.256L24.266 56.256 24.266 59.972 27.982 59.972 27.982 56.351 31.699 56.351 31.699 52.636 27.982 52.636 z"/>
<path d="M17.269,52.588L13.552 52.588 13.552 56.303 17.269 56.303 17.269 52.683 20.986 52.683 20.986 48.967 17.269 48.967 z"/>
<path d="M21.033,67.498L21.033 63.781 17.318 63.781 17.318 67.498 20.939 67.498 20.939 71.215 24.654 71.215 24.654 67.498 z"/>
<path d="M68.185,67.124L68.185 70.841 71.899 70.841 71.899 67.124 68.279 67.124 68.279 63.407 64.564 63.407 64.564 67.124 z"/>
<path d="M82.871,52.587L82.871 48.87 79.213 48.87 79.213 45.152 75.493 45.152 71.777 45.152 68.062 45.152 68.062 48.87 64.468 48.87 64.468 52.587 68.186 52.587 68.186 48.87 71.777 48.87 75.493 48.87 79.149 48.87 79.149 52.587 82.561 52.587 82.561 63.407 78.908 63.407 78.908 67.122 68.218 67.122 68.218 70.841 79.06 70.841 79.06 67.122 82.623 67.122 82.623 63.407 86.276 63.407 86.276 52.587 z"/>
<path d="M64.344,45.197L64.344 45.152 64.344 41.476 64.344 39.596 64.344 37.758 64.344 37.572 64.344 34.292 68.187 34.292 68.187 37.758 71.899 37.758 71.899 34.292 71.899 34.042 71.899 30.392 60.626 30.392 60.626 34.042 60.626 34.292 60.626 37.572 39.134 37.572 39.134 34.292 42.85 34.292 42.85 30.392 31.699 30.392 31.699 34.292 35.355 34.292 35.355 37.572 35.355 39.526 35.355 41.476 39.134 41.476 39.134 45.197 42.542 45.197 42.542 48.87 46.261 48.87 46.261 45.152 42.85 45.152 42.85 41.476 60.626 41.476 60.626 45.152 56.912 45.152 56.912 48.602 53.597 48.602 53.597 52.317 57.317 52.317 57.317 48.87 60.626 48.87 60.627 48.87 64.344 48.87 z"/>
</svg>